<?xml version="1.0" encoding="utf-8"?>
<!-- Generator: Adobe Illustrator 17.0.2, SVG Export Plug-In . SVG Version: 6.00 Build 0)  -->
<!DOCTYPE svg PUBLIC "-//W3C//DTD SVG 1.1//EN" "http://www.w3.org/Graphics/SVG/1.1/DTD/svg11.dtd">
<svg version="1.1" id="Layer_1" xmlns="http://www.w3.org/2000/svg" xmlns:xlink="http://www.w3.org/1999/xlink" x="0px" y="0px"
	 width="400px" height="239px" viewBox="0 0 400 239" enable-background="new 0 0 400 239" xml:space="preserve">
<linearGradient id="SVGID_1_" gradientUnits="userSpaceOnUse" x1="-10.9837" y1="-44.2759" x2="353.2809" y2="237.9734">
	<stop  offset="0" style="stop-color:#404041"/>
	<stop  offset="1" style="stop-color:#231F20"/>
</linearGradient>
<path fill="url(#SVGID_1_)" d="M396,224.333c0,5.523-4.477,10-10,10H14.333c-5.523,0-10-4.477-10-10v-210c0-5.523,4.477-10,10-10
	H386c5.523,0,10,4.477,10,10V224.333z"/>
<g>
	<rect x="174.189" y="129.667" fill="#F94000" width="12.989" height="70.667"/>
	<rect x="161.2" y="129.667" fill="#7CDB00" width="12.989" height="70.667"/>
	<rect x="187.178" y="129.667" fill="#00E1FF" width="12.989" height="70.667"/>
	<rect x="200.167" y="129.667" fill="#CC00A6" width="12.989" height="70.667"/>
	<rect x="213.156" y="129.667" fill="#D8DF21" width="12.989" height="70.667"/>
	<rect x="226.144" y="129.667" fill="#D10037" width="12.989" height="70.667"/>
	<rect x="252.122" y="129.667" fill="#F94000" width="12.989" height="70.667"/>
	<rect x="239.133" y="129.667" fill="#7CDB00" width="12.989" height="70.667"/>
	<rect x="265.111" y="129.667" fill="#00E1FF" width="12.989" height="70.667"/>
	<rect x="278.1" y="129.667" fill="#CC00A6" width="12.989" height="70.667"/>
	<rect x="291.089" y="129.667" fill="#D8DF21" width="12.989" height="70.667"/>
	<rect x="304.078" y="129.667" fill="#D10037" width="12.989" height="70.667"/>
	<rect x="330.056" y="129.667" fill="#F94000" width="12.989" height="70.667"/>
	<rect x="317.067" y="129.667" fill="#7CDB00" width="12.989" height="70.667"/>
	<rect x="343.044" y="129.667" fill="#00E1FF" width="12.989" height="70.667"/>
	<rect x="356.033" y="129.667" fill="#CC00A6" width="12.989" height="70.667"/>
	<rect x="369.022" y="129.667" fill="#D8DF21" width="12.989" height="70.667"/>
	<rect x="382.011" y="129.667" fill="#D10037" width="12.989" height="70.667"/>
	<rect x="96.256" y="129.667" fill="#F94000" width="12.989" height="70.667"/>
	<rect x="83.267" y="129.667" fill="#7CDB00" width="12.989" height="70.667"/>
	<rect x="109.244" y="129.667" fill="#00E1FF" width="12.989" height="70.667"/>
	<rect x="122.233" y="129.667" fill="#CC00A6" width="12.989" height="70.667"/>
	<rect x="135.222" y="129.667" fill="#D8DF21" width="12.989" height="70.667"/>
	<rect x="148.211" y="129.667" fill="#D10037" width="12.989" height="70.667"/>
	<rect x="18.322" y="129.667" fill="#F94000" width="12.989" height="70.667"/>
	<rect x="5.333" y="129.667" fill="#7CDB00" width="12.989" height="70.667"/>
	<rect x="31.311" y="129.667" fill="#00E1FF" width="12.989" height="70.667"/>
	<rect x="44.3" y="129.667" fill="#CC00A6" width="12.989" height="70.667"/>
	<rect x="57.289" y="129.667" fill="#D8DF21" width="12.989" height="70.667"/>
	<rect x="70.278" y="129.667" fill="#D10037" width="12.989" height="70.667"/>
</g>
<g>
	<path fill="#FFFFFF" d="M183.38,89.262c-1.964,0-3.765-0.409-5.402-1.228c-1.637-0.818-3.056-1.91-4.256-3.274
		s-2.128-2.919-2.783-4.665c-0.654-1.746-0.981-3.547-0.981-5.402c0-1.928,0.317-3.783,0.955-5.565
		c0.636-1.782,1.536-3.356,2.7-4.721s2.556-2.445,4.175-3.246c1.618-0.8,3.392-1.201,5.32-1.201c2.474,0,4.629,0.646,6.466,1.938
		c1.837,1.292,3.41,2.865,4.72,4.72v-6.166h2.456v28.921c0,1.928-0.364,3.619-1.092,5.074s-1.7,2.665-2.919,3.629
		s-2.638,1.691-4.256,2.183c-1.619,0.491-3.32,0.736-5.103,0.736c-1.637,0-3.11-0.155-4.42-0.464s-2.465-0.745-3.465-1.31
		c-1.001-0.564-1.892-1.255-2.674-2.073s-1.465-1.719-2.046-2.701l1.855-1.255c1.127,1.928,2.654,3.337,4.583,4.229
		c1.928,0.892,3.983,1.337,6.166,1.337c1.455,0,2.828-0.2,4.12-0.6c1.291-0.401,2.419-0.992,3.383-1.773
		c0.964-0.783,1.728-1.756,2.292-2.92c0.563-1.164,0.846-2.528,0.846-4.092v-6.221c-1.165,1.819-2.71,3.293-4.638,4.42
		C187.454,88.699,185.454,89.262,183.38,89.262z M184.035,86.916c1.2,0,2.364-0.227,3.492-0.682
		c1.127-0.454,2.155-1.045,3.083-1.773c0.928-0.728,1.7-1.546,2.319-2.456c0.618-0.908,0.981-1.818,1.091-2.728v-9.331
		c-0.437-1.092-1.019-2.101-1.746-3.028c-0.729-0.928-1.555-1.719-2.482-2.374c-0.928-0.654-1.929-1.173-3.002-1.555
		c-1.073-0.383-2.155-0.573-3.246-0.573c-1.711,0-3.238,0.364-4.584,1.091c-1.346,0.729-2.482,1.674-3.41,2.838
		c-0.928,1.165-1.637,2.482-2.128,3.956s-0.737,2.956-0.737,4.447c0,1.637,0.291,3.184,0.874,4.638
		c0.581,1.456,1.391,2.747,2.428,3.875s2.237,2.019,3.602,2.674C180.952,86.588,182.434,86.916,184.035,86.916z"/>
	<path fill="#FFFFFF" d="M205.152,54.012v-5.021h2.729v5.021H205.152z M205.152,88.826V60.451h2.729v28.375H205.152z"/>
	<path fill="#FFFFFF" d="M217.701,88.826V66.017h-3.983V63.78h3.983v-4.257c0-3.492,0.718-6.211,2.155-8.157
		c1.437-1.945,3.411-2.919,5.921-2.919c1.055,0,2.092,0.163,3.11,0.491c1.018,0.327,1.855,0.764,2.51,1.31l-0.982,1.964
		c-0.51-0.399-1.137-0.728-1.882-0.982c-0.746-0.254-1.52-0.382-2.319-0.382c-1.855,0-3.283,0.736-4.283,2.21
		c-1.001,1.474-1.501,3.611-1.501,6.412v4.311h8.076v2.237h-8.076v22.809H217.701z"/>
	<path fill="#FFFFFF" d="M247.386,87.461c-0.146,0.073-0.391,0.21-0.736,0.409c-0.346,0.2-0.782,0.392-1.31,0.573
		c-0.527,0.183-1.118,0.346-1.773,0.491c-0.654,0.145-1.364,0.218-2.128,0.218s-1.482-0.108-2.155-0.327
		c-0.674-0.219-1.265-0.546-1.773-0.982c-0.51-0.437-0.919-0.963-1.228-1.582c-0.31-0.618-0.464-1.346-0.464-2.183V62.688h-3.983
		v-2.237h3.983v-9.713h2.729v9.713h6.656v2.237h-6.656v20.735c0,1.056,0.362,1.847,1.091,2.374c0.728,0.527,1.563,0.791,2.51,0.791
		c1.128,0,2.102-0.19,2.92-0.573c0.818-0.382,1.318-0.627,1.5-0.736L247.386,87.461z"/>
	<path fill="#FFFFFF" d="M250.06,74.529c0-2,0.345-3.892,1.036-5.675c0.691-1.781,1.665-3.328,2.92-4.638s2.736-2.347,4.447-3.11
		c1.709-0.764,3.582-1.146,5.62-1.146c2.582,0,4.847,0.583,6.794,1.747c1.945,1.164,3.428,2.782,4.446,4.856l-2.673,0.873
		c-0.838-1.564-2.038-2.792-3.602-3.684c-1.564-0.891-3.274-1.337-5.13-1.337c-1.564,0-3.02,0.31-4.365,0.928
		c-1.346,0.619-2.52,1.473-3.52,2.564c-1.001,1.092-1.782,2.374-2.346,3.847c-0.564,1.474-0.847,3.065-0.847,4.774
		c0,1.711,0.301,3.32,0.9,4.829c0.601,1.511,1.4,2.82,2.401,3.93c1,1.109,2.173,1.991,3.52,2.646
		c1.346,0.654,2.783,0.981,4.311,0.981c0.982,0,1.955-0.145,2.92-0.437c0.963-0.29,1.854-0.673,2.674-1.146
		c0.818-0.473,1.527-1.027,2.128-1.664c0.6-0.637,1.009-1.301,1.228-1.992l2.674,0.764c-0.364,0.982-0.919,1.901-1.664,2.756
		c-0.746,0.855-1.629,1.592-2.646,2.21c-1.02,0.619-2.138,1.101-3.356,1.446s-2.482,0.519-3.792,0.519
		c-2.001,0-3.856-0.392-5.566-1.174c-1.71-0.781-3.191-1.854-4.446-3.219c-1.256-1.364-2.247-2.938-2.975-4.721
		C250.423,78.477,250.06,76.567,250.06,74.529z"/>
	<path fill="#FFFFFF" d="M288.801,89.372c-1.31,0-2.537-0.228-3.683-0.683c-1.146-0.454-2.147-1.072-3.001-1.854
		c-0.855-0.782-1.52-1.71-1.992-2.783c-0.473-1.072-0.709-2.228-0.709-3.465c0-1.236,0.291-2.364,0.873-3.384
		c0.581-1.018,1.399-1.9,2.455-2.646c1.055-0.745,2.301-1.327,3.738-1.746c1.437-0.417,3.028-0.627,4.774-0.627
		c1.527,0,3.073,0.136,4.638,0.409c1.564,0.272,2.965,0.646,4.202,1.118v-2.782c0-2.692-0.764-4.829-2.292-6.412
		c-1.527-1.582-3.602-2.373-6.221-2.373c-1.419,0-2.901,0.291-4.447,0.873s-3.102,1.418-4.665,2.51l-1.092-1.855
		c3.674-2.474,7.13-3.711,10.368-3.711c3.419,0,6.12,0.992,8.103,2.975s2.975,4.72,2.975,8.212v13.86
		c0,0.909,0.382,1.364,1.146,1.364v2.455c-0.183,0.036-0.354,0.055-0.519,0.055c-0.163,0-0.318,0-0.464,0
		c-0.654,0-1.255-0.227-1.801-0.683c-0.545-0.454-0.818-1.045-0.818-1.773v-2.346c-1.31,1.71-2.974,3.02-4.992,3.929
		C293.358,88.917,291.166,89.372,288.801,89.372z M289.347,87.189c2.109,0,4.056-0.391,5.839-1.174
		c1.782-0.781,3.11-1.846,3.983-3.191c0.618-0.728,0.928-1.455,0.928-2.183v-5.021c-2.765-1.018-5.603-1.528-8.513-1.528
		c-2.837,0-5.129,0.583-6.875,1.746c-1.746,1.165-2.619,2.693-2.619,4.584c0,0.946,0.182,1.838,0.545,2.674
		c0.363,0.837,0.874,1.555,1.528,2.155c0.655,0.601,1.428,1.073,2.319,1.419C287.373,87.016,288.328,87.189,289.347,87.189z"/>
	<path fill="#FFFFFF" d="M324.596,62.907c-2.583,0.073-4.82,0.828-6.712,2.265c-1.892,1.438-3.219,3.41-3.983,5.92v17.734h-2.729
		V60.451h2.565v6.985c0.981-2.001,2.282-3.629,3.901-4.884c1.618-1.256,3.355-1.974,5.211-2.155c0.363,0,0.69-0.009,0.982-0.027
		c0.29-0.019,0.546-0.027,0.764-0.027V62.907z"/>
	<path fill="#FFFFFF" d="M340.093,89.372c-1.965,0-3.784-0.409-5.457-1.228c-1.674-0.819-3.119-1.91-4.338-3.274
		s-2.165-2.928-2.837-4.692c-0.674-1.765-1.01-3.593-1.01-5.484c0-1.964,0.327-3.838,0.982-5.62
		c0.654-1.782,1.563-3.347,2.728-4.693c1.164-1.345,2.538-2.418,4.12-3.219c1.582-0.8,3.319-1.201,5.211-1.201
		c1.236,0,2.409,0.183,3.52,0.546c1.109,0.364,2.128,0.846,3.056,1.446s1.773,1.301,2.538,2.101
		c0.764,0.801,1.418,1.656,1.964,2.564V48.992h2.729v36.015c0,0.909,0.382,1.364,1.146,1.364v2.455
		c-0.183,0.036-0.346,0.055-0.491,0.055s-0.291,0-0.437,0c-0.8,0-1.445-0.254-1.937-0.764s-0.737-1.073-0.737-1.692v-3.273
		c-1.164,1.892-2.72,3.401-4.665,4.529C344.231,88.808,342.202,89.372,340.093,89.372z M340.584,86.916
		c0.982,0,2.036-0.199,3.165-0.6c1.127-0.4,2.183-0.955,3.164-1.665c0.982-0.709,1.81-1.518,2.483-2.428
		c0.673-0.909,1.063-1.891,1.173-2.946v-9.331c-0.4-1.019-0.974-1.992-1.719-2.92c-0.746-0.927-1.592-1.727-2.537-2.4
		c-0.946-0.673-1.965-1.209-3.056-1.609c-1.092-0.4-2.147-0.601-3.165-0.601c-1.637,0-3.12,0.354-4.447,1.064
		c-1.328,0.709-2.475,1.637-3.438,2.782c-0.965,1.146-1.701,2.456-2.21,3.929c-0.51,1.474-0.765,2.993-0.765,4.557
		c0,1.637,0.291,3.184,0.874,4.638c0.581,1.456,1.391,2.747,2.428,3.875s2.237,2.019,3.602,2.674
		C337.501,86.588,338.983,86.916,340.584,86.916z"/>
</g>
</svg>
