<svg width="1414" height="695" xmlns="http://www.w3.org/2000/svg"><g><path d="M-23,-66L-111,21L18,-17Z" fill="#fbfef7" stroke="#fbfef7"/><path d="M-23,-66L18,-17L216,-93Z" fill="#f1faee" stroke="#f1faee"/><path d="M18,-17L-111,21L77,83Z" fill="#f5fcf1" stroke="#f5fcf1"/><path d="M18,-17L77,83L216,-93Z" fill="#eef8ec" stroke="#eef8ec"/><path d="M216,-93L77,83L264,37Z" fill="#e5f5e4" stroke="#e5f5e4"/><path d="M216,-93L264,37L351,-106Z" fill="#ddf2de" stroke="#ddf2de"/><path d="M351,-106L264,37L415,122Z" fill="#d4efdd" stroke="#d4efdd"/><path d="M351,-106L415,122L501,-100Z" fill="#cdece0" stroke="#cdece0"/><path d="M351,-106L501,-100L1266,-126Z" fill="#afdbe3" stroke="#afdbe3"/><path d="M501,-100L415,122L565,133Z" fill="#bfe9db" stroke="#bfe9db"/><path d="M501,-100L565,133L654,58Z" fill="#b9e5de" stroke="#b9e5de"/><path d="M501,-100L654,58L705,-33Z" fill="#b8e2e2" stroke="#b8e2e2"/><path d="M501,-100L705,-33L855,-77Z" fill="#b1dde3" stroke="#b1dde3"/><path d="M501,-100L855,-77L949,-97Z" fill="#a9d7e4" stroke="#a9d7e4"/><path d="M501,-100L949,-97L1266,-126Z" fill="#9bcbe2" stroke="#9bcbe2"/><path d="M705,-33L654,58L775,97Z" fill="#aadbdf" stroke="#aadbdf"/><path d="M705,-33L775,97L855,-77Z" fill="#a8d6e4" stroke="#a8d6e4"/><path d="M855,-77L775,97L994,110Z" fill="#9acede" stroke="#9acede"/><path d="M855,-77L994,110L949,-97Z" fill="#98c8e0" stroke="#98c8e0"/><path d="M949,-97L994,110L1162,-51Z" fill="#8ebedb" stroke="#8ebedb"/><path d="M949,-97L1162,-51L1266,-126Z" fill="#84b4d6" stroke="#84b4d6"/><path d="M1162,-51L994,110L1171,111Z" fill="#80b6d0" stroke="#80b6d0"/><path d="M1162,-51L1171,111L1257,19Z" fill="#7dadcf" stroke="#7dadcf"/><path d="M1162,-51L1257,19L1266,-126Z" fill="#80aad1" stroke="#80aad1"/><path d="M1266,-126L1257,19L1366,-59Z" fill="#80a3cd" stroke="#80a3cd"/><path d="M1266,-126L1366,-59L1604,-107Z" fill="#8097c7" stroke="#8097c7"/><path d="M1366,-59L1257,19L1460,20Z" fill="#809cca" stroke="#809cca"/><path d="M1366,-59L1460,20L1604,-107Z" fill="#8090c3" stroke="#8090c3"/><path d="M1604,-107L1460,20L1574,69Z" fill="#8089c0" stroke="#8089c0"/><path d="M1604,-107L1574,69L1626,571Z" fill="#6582af" stroke="#6582af"/><path d="M-111,21L-112,699L-95,238Z" fill="#bff2f2" stroke="#bff2f2"/><path d="M-111,21L-95,238L16,209Z" fill="#e9feea" stroke="#e9feea"/><path d="M-111,21L16,209L77,83Z" fill="#ecfce9" stroke="#ecfce9"/><path d="M77,83L16,209L269,204Z" fill="#d5f7dc" stroke="#d5f7dc"/><path d="M77,83L269,204L264,37Z" fill="#d7f5d8" stroke="#d7f5d8"/><path d="M264,37L269,204L353,196Z" fill="#c9f1ce" stroke="#c9f1ce"/><path d="M264,37L353,196L415,122Z" fill="#c8efd2" stroke="#c8efd2"/><path d="M415,122L353,196L538,196Z" fill="#b3ead1" stroke="#b3ead1"/><path d="M415,122L538,196L565,133Z" fill="#b0e8d2" stroke="#b0e8d2"/><path d="M565,133L538,196L666,177Z" fill="#a2e2d4" stroke="#a2e2d4"/><path d="M565,133L666,177L654,58Z" fill="#a9e1d5" stroke="#a9e1d5"/><path d="M654,58L666,177L775,97Z" fill="#a3dcd7" stroke="#a3dcd7"/><path d="M775,97L666,177L811,166Z" fill="#98d8d5" stroke="#98d8d5"/><path d="M775,97L811,166L994,110Z" fill="#91d0d6" stroke="#91d0d6"/><path d="M994,110L811,166L953,201Z" fill="#84c8d2" stroke="#84c8d2"/><path d="M994,110L953,201L1152,174Z" fill="#77bdcc" stroke="#77bdcc"/><path d="M994,110L1152,174L1171,111Z" fill="#77b6c9" stroke="#77b6c9"/><path d="M1171,111L1152,174L1228,170Z" fill="#6caec4" stroke="#6caec4"/><path d="M1171,111L1228,170L1257,19Z" fill="#74abc6" stroke="#74abc6"/><path d="M1257,19L1228,170L1460,20Z" fill="#77a1c4" stroke="#77a1c4"/><path d="M1460,20L1228,170L1468,243Z" fill="#6e9ab9" stroke="#6e9ab9"/><path d="M1460,20L1468,243L1541,208Z" fill="#6a8eb4" stroke="#6a8eb4"/><path d="M1460,20L1541,208L1574,69Z" fill="#748bb6" stroke="#748bb6"/><path d="M1574,69L1541,208L1626,571Z" fill="#497fb3" stroke="#497fb3"/><path d="M-95,238L-112,699L-87,471Z" fill="#9fd3ed" stroke="#9fd3ed"/><path d="M-95,238L-87,471L-86,352Z" fill="#b7ecf2" stroke="#b7ecf2"/><path d="M-95,238L-86,352L16,209Z" fill="#caf9ed" stroke="#caf9ed"/><path d="M16,209L-86,352L63,399Z" fill="#b8efea" stroke="#b8efea"/><path d="M16,209L63,399L221,349Z" fill="#aeebe2" stroke="#aeebe2"/><path d="M16,209L221,349L269,204Z" fill="#b8f1db" stroke="#b8f1db"/><path d="M269,204L221,349L394,318Z" fill="#a2e9d4" stroke="#a2e9d4"/><path d="M269,204L394,318L353,196Z" fill="#abebd3" stroke="#abebd3"/><path d="M353,196L394,318L538,196Z" fill="#a2e8d4" stroke="#a2e8d4"/><path d="M538,196L394,318L569,338Z" fill="#8de2d6" stroke="#8de2d6"/><path d="M538,196L569,338L666,177Z" fill="#90e0d6" stroke="#90e0d6"/><path d="M666,177L569,338L783,386Z" fill="#77d4d9" stroke="#77d4d9"/><path d="M666,177L783,386L811,166Z" fill="#7ed3d8" stroke="#7ed3d8"/><path d="M811,166L783,386L953,201Z" fill="#73ccd9" stroke="#73ccd9"/><path d="M953,201L783,386L1013,374Z" fill="#5abcd8" stroke="#5abcd8"/><path d="M953,201L1013,374L1107,356Z" fill="#51b3d2" stroke="#51b3d2"/><path d="M953,201L1107,356L1152,174Z" fill="#5eb5cd" stroke="#5eb5cd"/><path d="M1152,174L1107,356L1228,170Z" fill="#57adc8" stroke="#57adc8"/><path d="M1228,170L1107,356L1305,407Z" fill="#429fc8" stroke="#429fc8"/><path d="M1228,170L1305,407L1468,243Z" fill="#4b99c1" stroke="#4b99c1"/><path d="M1468,243L1305,407L1384,430Z" fill="#3685c0" stroke="#3685c0"/><path d="M1468,243L1384,430L1520,322Z" fill="#3d83bb" stroke="#3d83bb"/><path d="M1468,243L1520,322L1541,208Z" fill="#4f88b7" stroke="#4f88b7"/><path d="M1541,208L1520,322L1626,571Z" fill="#3472b6" stroke="#3472b6"/><path d="M-86,352L-87,471L63,399Z" fill="#a6e0f0" stroke="#a6e0f0"/><path d="M63,399L-87,471L35,494Z" fill="#9ad4e7" stroke="#9ad4e7"/><path d="M63,399L35,494L214,517Z" fill="#8eccde" stroke="#8eccde"/><path d="M63,399L214,517L221,349Z" fill="#8fd6df" stroke="#8fd6df"/><path d="M221,349L214,517L394,318Z" fill="#8bd7d7" stroke="#8bd7d7"/><path d="M394,318L214,517L351,576Z" fill="#79c4d0" stroke="#79c4d0"/><path d="M394,318L351,576L539,528Z" fill="#6cbfd1" stroke="#6cbfd1"/><path d="M394,318L539,528L569,338Z" fill="#72ced9" stroke="#72ced9"/><path d="M569,338L539,528L684,434Z" fill="#60c0d9" stroke="#60c0d9"/><path d="M569,338L684,434L783,386Z" fill="#62c4db" stroke="#62c4db"/><path d="M684,434L539,528L729,547Z" fill="#4fabd1" stroke="#4fabd1"/><path d="M684,434L729,547L783,386Z" fill="#4fb1d8" stroke="#4fb1d8"/><path d="M783,386L729,547L883,506Z" fill="#45a6d5" stroke="#45a6d5"/><path d="M783,386L883,506L1013,374Z" fill="#44acdb" stroke="#44acdb"/><path d="M1013,374L883,506L927,538Z" fill="#379ad2" stroke="#379ad2"/><path d="M1013,374L927,538L1132,524Z" fill="#2d90cc" stroke="#2d90cc"/><path d="M1013,374L1132,524L1107,356Z" fill="#319ad1" stroke="#319ad1"/><path d="M1107,356L1132,524L1220,519Z" fill="#2287c7" stroke="#2287c7"/><path d="M1107,356L1220,519L1305,407Z" fill="#278ac9" stroke="#278ac9"/><path d="M1305,407L1220,519L1384,430Z" fill="#237bc1" stroke="#237bc1"/><path d="M1384,430L1220,519L1441,523Z" fill="#1c6cba" stroke="#1c6cba"/><path d="M1384,430L1441,523L1520,322Z" fill="#2772bd" stroke="#2772bd"/><path d="M1520,322L1441,523L1626,571Z" fill="#1f5eb3" stroke="#1f5eb3"/><path d="M-87,471L-112,699L48,643Z" fill="#87b1d8" stroke="#87b1d8"/><path d="M-87,471L48,643L35,494Z" fill="#8dc0dd" stroke="#8dc0dd"/><path d="M35,494L48,643L214,517Z" fill="#81b8d4" stroke="#81b8d4"/><path d="M214,517L48,643L232,658Z" fill="#72a8c7" stroke="#72a8c7"/><path d="M214,517L232,658L351,576Z" fill="#6caac3" stroke="#6caac3"/><path d="M351,576L232,658L405,721Z" fill="#5a97b9" stroke="#5a97b9"/><path d="M351,576L405,721L468,624Z" fill="#5396bc" stroke="#5396bc"/><path d="M351,576L468,624L539,528Z" fill="#59a4c5" stroke="#59a4c5"/><path d="M539,528L468,624L729,638Z" fill="#4799c3" stroke="#4799c3"/><path d="M539,528L729,638L729,547Z" fill="#4399c8" stroke="#4399c8"/><path d="M729,547L729,638L856,622Z" fill="#3389c5" stroke="#3389c5"/><path d="M729,547L856,622L883,506Z" fill="#3591cb" stroke="#3591cb"/><path d="M883,506L856,622L927,538Z" fill="#2f8bca" stroke="#2f8bca"/><path d="M927,538L856,622L930,690Z" fill="#237bc1" stroke="#237bc1"/><path d="M927,538L930,690L1132,524Z" fill="#1f79c0" stroke="#1f79c0"/><path d="M1132,524L930,690L1137,705Z" fill="#0f64b5" stroke="#0f64b5"/><path d="M1132,524L1137,705L1220,519Z" fill="#0e68b8" stroke="#0e68b8"/><path d="M1220,519L1137,705L1320,687Z" fill="#0555ad" stroke="#0555ad"/><path d="M1220,519L1320,687L1441,523Z" fill="#0e59b0" stroke="#0e59b0"/><path d="M1441,523L1320,687L1371,729Z" fill="#0343a4" stroke="#0343a4"/><path d="M1441,523L1371,729L1518,728Z" fill="#01389f" stroke="#01389f"/><path d="M1441,523L1518,728L1626,571Z" fill="#093da1" stroke="#093da1"/><path d="M1626,571L1518,728L1584,784Z" fill="#002293" stroke="#002293"/><path d="M-112,699L-104,872L26,851Z" fill="#7e7fbf" stroke="#7e7fbf"/><path d="M-112,699L26,851L48,643Z" fill="#7990c5" stroke="#7990c5"/><path d="M48,643L26,851L232,658Z" fill="#6f8fbe" stroke="#6f8fbe"/><path d="M232,658L26,851L266,879Z" fill="#6879ae" stroke="#6879ae"/><path d="M232,658L266,879L405,721Z" fill="#5b7eac" stroke="#5b7eac"/><path d="M405,721L266,879L363,874Z" fill="#5670a3" stroke="#5670a3"/><path d="M405,721L363,874L555,823Z" fill="#4c6ca6" stroke="#4c6ca6"/><path d="M405,721L555,823L468,624Z" fill="#487fb2" stroke="#487fb2"/><path d="M468,624L555,823L729,638Z" fill="#3c80b7" stroke="#3c80b7"/><path d="M729,638L555,823L654,843Z" fill="#366aae" stroke="#366aae"/><path d="M729,638L654,843L874,864Z" fill="#2b5eae" stroke="#2b5eae"/><path d="M729,638L874,864L856,622Z" fill="#256cb8" stroke="#256cb8"/><path d="M856,622L874,864L930,690Z" fill="#1e61b4" stroke="#1e61b4"/><path d="M930,690L874,864L965,868Z" fill="#1a4aa7" stroke="#1a4aa7"/><path d="M930,690L965,868L1137,705Z" fill="#114eaa" stroke="#114eaa"/><path d="M1137,705L965,868L1149,807Z" fill="#093ca1" stroke="#093ca1"/><path d="M1137,705L1149,807L1215,843Z" fill="#01369d" stroke="#01369d"/><path d="M1137,705L1215,843L1320,687Z" fill="#003a9f" stroke="#003a9f"/><path d="M1320,687L1215,843L1371,729Z" fill="#00309a" stroke="#00309a"/><path d="M1371,729L1215,843L1427,834Z" fill="#002092" stroke="#002092"/><path d="M1371,729L1427,834L1518,728Z" fill="#001f91" stroke="#001f91"/><path d="M1518,728L1427,834L1584,784Z" fill="#00138b" stroke="#00138b"/><path d="M-104,872L266,879L26,851Z" fill="#727aad" stroke="#727aad"/><path d="M266,879L965,868L363,874Z" fill="#42689f" stroke="#42689f"/><path d="M363,874L965,868L874,864Z" fill="#2d5aa2" stroke="#2d5aa2"/><path d="M363,874L874,864L654,843Z" fill="#3761a2" stroke="#3761a2"/><path d="M363,874L654,843L555,823Z" fill="#4268a3" stroke="#4268a3"/><path d="M965,868L1427,834L1215,843Z" fill="#002d93" stroke="#002d93"/><path d="M965,868L1215,843L1149,807Z" fill="#063699" stroke="#063699"/></g></svg>